<?xml version="1.0"?>
<svg xmlns="http://www.w3.org/2000/svg" fill="#fff" viewBox="0 0 64 64" width="512" height="512"><g id="Outline"><g><path d="M45.276,44a1,1,0,0,1-1-.944L43.054,21H38.946l-1,18.056a1,1,0,0,1-2-.112l1.056-19A1,1,0,0,1,38,19h6a1,1,0,0,1,1,.944l1.277,23A1,1,0,0,1,45.333,44Z"/><path d="M45.056,40H40.944a1,1,0,0,1,0-2H44l-.111-2h-6.72a1,1,0,0,1,0-2h7.666a1,1,0,0,1,1,.944l.223,4a1,1,0,0,1-1,1.056Z"/><path d="M44.611,32H37.389a1,1,0,0,1-1-1.056l.222-4a1,1,0,0,1,1-.944h6.778a1,1,0,0,1,1,.944l.222,4a1,1,0,0,1-1,1.056Zm-6.165-2h5.108l-.112-2H38.558Z"/><path d="M57.276,44a1,1,0,0,1-1-.944L55.054,21H50.946l-1,18.056a1,1,0,0,1-2-.112l1.056-19A1,1,0,0,1,50,19h6a1,1,0,0,1,1,.944l1.277,23A1,1,0,0,1,57.333,44Z"/><path d="M57.056,40H52.944a1,1,0,0,1,0-2H56l-.111-2h-6.72a1,1,0,0,1,0-2h7.666a1,1,0,0,1,1,.944l.223,4a1,1,0,0,1-1,1.056Z"/><path d="M56.611,32H49.389a1,1,0,0,1-1-1.056l.222-4a1,1,0,0,1,1-.944h6.778a1,1,0,0,1,1,.944l.222,4a1,1,0,0,1-1,1.056Zm-6.165-2h5.108l-.112-2H50.558Z"/><path d="M35,62H25a1,1,0,0,1-1-1V48a1,1,0,0,1,.419-.813l7-5A.994.994,0,0,1,32,42H61a1,1,0,0,1,1,1V57a1,1,0,0,1-2,0V44H32.32L26,48.515V60h9a1,1,0,0,1,0,2Z"/><path d="M61,62H39a1,1,0,0,1,0-2H61a1,1,0,0,1,0,2Z"/><path d="M41,54H35a1,1,0,0,1-1-1V47a1,1,0,0,1,1-1h6a1,1,0,0,1,1,1v6A1,1,0,0,1,41,54Zm-5-2h4V48H36Z"/><path d="M51,54H45a1,1,0,0,1-1-1V47a1,1,0,0,1,1-1h6a1,1,0,0,1,1,1v6A1,1,0,0,1,51,54Zm-5-2h4V48H46Z"/><path d="M61,54H55a1,1,0,0,1-1-1V47a1,1,0,0,1,1-1h2a1,1,0,0,1,0,2H56v4h5a1,1,0,0,1,0,2Z"/><path d="M11,50a1,1,0,0,1-.658-.247l-8-7A1,1,0,0,1,3,41H19a1,1,0,0,1,0,2H5.661L11,47.671l2.949-2.58A1,1,0,0,1,15.266,46.6l-3.608,3.156A1,1,0,0,1,11,50Z"/><path d="M17,62a1,1,0,0,1-.707-.293L11,56.414,5.707,61.707a1,1,0,0,1-1.694-.863l3-19A1,1,0,0,1,8,41h6a1,1,0,0,1,.987.844l3,19A1,1,0,0,1,17,62Zm-6-8a1,1,0,0,1,.707.293l3.825,3.825L13.146,43H8.854L6.468,58.118l3.825-3.825A1,1,0,0,1,11,54Z"/><path d="M11,56a1,1,0,0,1-.6-.2l-4-3a1,1,0,0,1,0-1.6l4-3a1,1,0,0,1,1.2,0l4,3a1,1,0,0,1,0,1.6l-4,3A1,1,0,0,1,11,56ZM8.667,52,11,53.75,13.333,52,11,50.25Z"/><path d="M13,43H9a1,1,0,0,1-.948-.684l-2-6A1,1,0,0,1,7,35h8a1,1,0,0,1,.948,1.316l-2,6A1,1,0,0,1,13,43ZM9.721,41h2.558l1.333-4H8.388Z"/><path d="M17,37H5a1,1,0,0,1,0-2H17a1,1,0,0,1,0,2Z"/><path d="M25,49a6.882,6.882,0,0,1-6.809-5.768l-.177-1.068,1.972-.328.178,1.068A4.888,4.888,0,0,0,25,47Z"/><path d="M32,44a20.542,20.542,0,0,1-15.616-7.183l-.145-.168,1.522-1.3.142.167A18.548,18.548,0,0,0,32,42Z"/><path d="M11,31a1,1,0,0,1-.831-1.555L11.132,28H9a1,1,0,0,1-.832-1.555l2-3a1,1,0,0,1,1.664,1.11L10.868,26H13a1,1,0,0,1,.832,1.555l-2,3A1,1,0,0,1,11,31Z"/><path d="M54,17a3,3,0,0,1-.907-5.86A4,4,0,1,1,57,16a4.069,4.069,0,0,1-.708-.062A3,3,0,0,1,54,17Zm3-7a2,2,0,0,0-2,2,1,1,0,0,1-1,1,1,1,0,1,0,.923,1.385,1,1,0,0,1,1.308-.539A2,2,0,1,0,57,10Z"/><path d="M42,17a3,3,0,0,1-.907-5.86A4,4,0,1,1,45,16a4.069,4.069,0,0,1-.708-.062A3,3,0,0,1,42,17Zm3-7a2,2,0,0,0-2,2,1,1,0,0,1-1,1,1,1,0,1,0,.923,1.385,1,1,0,0,1,1.308-.539A2,2,0,1,0,45,10Z"/><path d="M29,62H25a1,1,0,0,1-1-1V55a1,1,0,0,1,1-1h4a1,1,0,0,1,1,1v6A1,1,0,0,1,29,62Zm-3-2h2V56H26Z"/><path d="M57,58H35a1,1,0,0,1,0-2H57a1,1,0,0,1,0,2Z"/></g></g></svg>
